# xmcd CD database file
#
# Track frame offsets:
#	150
#	12861
#	24836
#	36567
#	52366
#	65200
#	75448
#	86745
#	97532
#	107798
#	117924
#	133519
#	147897
#	163480
#
# Disc length: 2388 seconds
#
# Revision: 1
# Processed by: cddbd v1.5.2PL0 Copyright (c) Steve Scherf et al.
# Submitted via: CDex 1.70beta2
#
DISCID=bd09520e
DTITLE=Jeff Parker - Two Roads To Travel
DYEAR=2004
DGENRE=Bluegrass
TTITLE0=Two Roads To Travel
TTITLE1=Higher Ground Awaiting
TTITLE2=Meet You In Heaven Someday
TTITLE3=Church By The Side Of The Road
TTITLE4=The Last Move For Me
TTITLE5=When Day Is Done
TTITLE6=Our Savior's Blessed Blood
TTITLE7=Going Up
TTITLE8=I Won't Forget The Day
TTITLE9=When The Roll Is Called Up Yonder
TTITLE10=I Steal Away And Pray
TTITLE11=Still Driving Nails In The Hands Of The Savior
TTITLE12=Anywhere Is Home
TTITLE13=Jesus Found Me
EXTD=YEAR: 2004
EXTT0=
EXTT1=
EXTT2=
EXTT3=
EXTT4=
EXTT5=
EXTT6=
EXTT7=
EXTT8=
EXTT9=
EXTT10=
EXTT11=
EXTT12=
EXTT13=
PLAYORDER=
